<svg fill="none" xmlns="http://www.w3.org/2000/svg" viewBox="0 0 24 24" class="design-iconfont">
  <g clip-path="url(#fl2kxhtqg__clip0_149_8269)">
    <path d="M1 12C1 18.0772 5.92277 23 12 23C18.0772 23 23 18.0772 23 12C23 5.92277 18.0772 1 12 1C9.08119 1 6.28762 2.1599 4.22376 4.22376C2.1599 6.28218 1 9.08119 1 12Z" fill="#FBE945"/>
    <path d="M19.7762 4.22375L4.22375 19.7817C8.53663 23.9856 15.4252 23.9421 19.6782 19.6837C23.9366 15.4252 23.9802 8.53663 19.7762 4.22375Z" fill="#F2D636"/>
    <path d="M4.00049 12C4.00049 15.2346 5.94999 18.148 8.93415 19.3896C11.9238 20.6257 15.3599 19.945 17.647 17.6579C19.9341 15.3708 20.6203 11.9292 19.3787 8.94504C18.1426 5.95544 15.2238 4.01138 11.9891 4.01138C7.58366 4.00049 4.00049 7.58365 4.00049 12Z" fill="#FBB11B"/>
    <path d="M17.4782 6.18959C14.3361 3.21088 9.39702 3.27623 6.33662 6.33662C3.27623 9.39702 3.21088 14.3416 6.18959 17.4782L17.4782 6.18959Z" fill="#FDC72F"/>
    <path d="M15.6322 13.4539C16.2638 16.7812 15.0223 17.647 11.951 16.0569C8.80889 17.7668 7.61632 16.9227 8.31879 13.5737C5.76483 11.3029 6.25493 9.91978 9.77275 9.42423C11.3193 6.33116 12.8223 6.30938 14.298 9.35344C17.7886 9.72918 18.2351 11.0906 15.6322 13.4539Z" fill="#F4EA2A"/>
    <path d="M14.298 9.35352C17.7886 9.72926 18.2351 11.0852 15.6322 13.454C16.2639 16.7812 15.0223 17.6471 11.951 16.057C9.55494 17.3639 8.29157 17.1788 8.1391 15.5288L14.298 9.35352Z" fill="#F2D636"/>
  </g>
  <defs>
    <clipPath id="fl2kxhtqg__clip0_149_8269">
      <path fill="#fff" d="M0 0H24V24H0z"/>
    </clipPath>
  </defs>
</svg>
