<svg fill="none" xmlns="http://www.w3.org/2000/svg" viewBox="0 0 30 30" class="design-iconfont">
  <g filter="url(#wmbll40dr__filter0_i_57_2904)">
    <path d="M0.438094 9.16474C1.01189 4.58883 4.58939 1.01303 9.16526 0.438941C11.16 0.188684 13.2456 0 14.9999 0C16.7593 0 18.8519 0.189773 20.8519 0.441107C25.4189 1.01505 28.9947 4.57873 29.5715 9.14539C29.8127 11.0548 29.9942 13.0412 29.9999 14.7226C30.006 16.5587 29.8108 18.744 29.5522 20.8205C28.9814 25.403 25.405 28.9894 20.8229 29.5634C18.8341 29.8125 16.7544 30 15 30C13.2408 30 11.1547 29.8115 9.16107 29.5613C4.5872 28.9875 1.01235 25.4125 0.438588 20.8387C0.188501 18.845 0 16.7589 0 14.9997C0 13.2418 0.188253 11.1572 0.438094 9.16474Z" fill="#FAC662"/>
  </g>
  <path d="M15.8246 7.78845C19.0329 7.78845 21.6346 10.3711 21.6346 13.5577C21.6348 14.8734 21.1837 16.1482 20.3589 17.1635C19.7722 17.8913 19.4556 18.6971 19.4556 19.5481V22.2115H12.9186L12.9177 20.0481H11.4657C10.6629 20.0481 10.0127 19.4029 10.0127 18.6058V16.4933L8.59098 15.8885C8.34076 15.7817 8.31896 15.5317 8.42701 15.3635L10.061 12.8115C10.4307 9.97787 12.8694 7.78845 15.8236 7.78845H15.8246ZM14.3365 11.3288C14.2093 11.3246 14.0832 11.3541 13.9707 11.4144C13.8749 11.4687 13.793 11.5451 13.7319 11.6375C13.663 11.7464 13.6058 11.8624 13.5612 11.9836L13.4229 12.3423L12.0846 15.8C12.0296 15.9385 11.9898 16.0461 11.967 16.124C11.9439 16.1968 11.9318 16.2726 11.931 16.349C11.931 16.474 11.9822 16.5875 12.0846 16.6865C12.1309 16.7339 12.1859 16.7714 12.2466 16.797C12.3073 16.8226 12.3724 16.8357 12.4381 16.8356C12.5954 16.8356 12.7082 16.7894 12.7774 16.6961C12.8457 16.6029 12.9291 16.4231 13.0267 16.1567L13.2769 15.474H15.4038L15.654 16.1423C15.6872 16.224 15.727 16.3192 15.7734 16.4269C15.8199 16.5346 15.8635 16.6144 15.9033 16.6673C15.9465 16.7227 16.0022 16.7669 16.0657 16.7962C16.1291 16.8254 16.1985 16.8389 16.2682 16.8356C16.4103 16.8356 16.5326 16.7846 16.634 16.6817C16.6807 16.6384 16.7183 16.5859 16.7444 16.5274C16.7704 16.4688 16.7845 16.4055 16.7857 16.3413C16.7857 16.2231 16.7316 16.0336 16.6245 15.7711L15.2578 12.3346C15.2065 12.1967 15.1534 12.0595 15.0986 11.9231C15.0576 11.8217 15.0062 11.725 14.945 11.6346C14.8832 11.5433 14.8015 11.4676 14.7062 11.4135C14.5923 11.3531 14.4649 11.324 14.3365 11.3288ZM18.1306 11.3288C18.0596 11.3265 17.989 11.3399 17.9237 11.3681C17.8584 11.3964 17.7999 11.4387 17.7524 11.4923C17.6548 11.601 17.6065 11.7644 17.6065 11.9827V16.1779C17.6065 16.3961 17.6557 16.5606 17.7543 16.6702C17.8014 16.7239 17.8594 16.7665 17.9244 16.7951C17.9894 16.8237 18.0598 16.8375 18.1306 16.8356C18.203 16.8383 18.2751 16.8251 18.3421 16.7969C18.409 16.7687 18.4691 16.7261 18.5182 16.6721C18.6168 16.5635 18.6661 16.3981 18.6661 16.1779V11.9827C18.6661 11.7615 18.6168 11.5981 18.5182 11.4904C18.4688 11.4368 18.4086 11.3947 18.3417 11.3668C18.2749 11.3389 18.2029 11.326 18.1306 11.3288ZM14.3299 12.4654L15.1185 14.6635H13.5546L14.3299 12.4654Z" fill="#fff"/>
  <defs>
    <filter id="wmbll40dr__filter0_i_57_2904" x="0" y="0" width="30.48" height="30.96" filterUnits="userSpaceOnUse" color-interpolation-filters="sRGB">
      <feFlood flood-opacity="0" result="BackgroundImageFix"/>
      <feBlend in="SourceGraphic" in2="BackgroundImageFix" result="shape"/>
      <feColorMatrix in="SourceAlpha" values="0 0 0 0 0 0 0 0 0 0 0 0 0 0 0 0 0 0 127 0" result="hardAlpha"/>
      <feOffset dx=".48" dy=".96"/>
      <feGaussianBlur stdDeviation=".96"/>
      <feComposite in2="hardAlpha" operator="arithmetic" k2="-1" k3="1"/>
      <feColorMatrix values="0 0 0 0 1 0 0 0 0 1 0 0 0 0 1 0 0 0 0.4 0"/>
      <feBlend mode="multiply" in2="shape" result="effect1_innerShadow_57_2904"/>
    </filter>
  </defs>
</svg>
